HIERARCHY
ROOT Hips
{
  OFFSET 71.7574 47.5266 353.468
  CHANNELS 6 Xposition Yposition Zposition Zrotation Xrotation Yrotation
  JOINT Spine
  {
    OFFSET 0.0 0.0 0.0
    CHANNELS 3 Zrotation Xrotation Yrotation
    JOINT Spine1
    {
      OFFSET 38.68 0.0 0.0
      CHANNELS 3 Zrotation Xrotation Yrotation
      JOINT Neck
      {
        OFFSET 0.0 0.0 0.0
        CHANNELS 3 Zrotation Xrotation Yrotation
        JOINT Head
        {
          OFFSET 0.0 0.0 0.0
          CHANNELS 3 Zrotation Xrotation Yrotation
          End Site
          {
            OFFSET 17 0 0
          }
        }
      }
      JOINT LeftShoulder
      {
        OFFSET 0.0 0.0 14.2
        CHANNELS 3 Zrotation Xrotation Yrotation
        JOINT LeftArm
        {
          OFFSET 0.0 0.0 0.0
          CHANNELS 3 Zrotation Xrotation Yrotation
          JOINT LeftForeArm
          {
            OFFSET 21.3 0.0 0.0
            CHANNELS 3 Zrotation Xrotation Yrotation
            JOINT LeftHand
            {
              OFFSET 21.3 0.0 0.0
              CHANNELS 3 Zrotation Xrotation Yrotation
              End Site
              {
                OFFSET 7.2 0 0
              }
            }
          }
        }
      }
      JOINT RightShoulder
      {
        OFFSET 0.0 0.0 -14.2
        CHANNELS 3 Zrotation Xrotation Yrotation
        JOINT RightArm
        {
          OFFSET 0.0 0.0 0.0
          CHANNELS 3 Zrotation Xrotation Yrotation
          JOINT RightForeArm
          {
            OFFSET 21.3 0.0 0.0
            CHANNELS 3 Zrotation Xrotation Yrotation
            JOINT RightHand
            {
              OFFSET 21.3 0.0 0.0
              CHANNELS 3 Zrotation Xrotation Yrotation
              End Site
              {
                OFFSET 7.2 0 0
              }
            }
          }
        }
      }
    }
  }
  JOINT LeftUpLeg
  {
    OFFSET 0.0 0.0 14.2
    CHANNELS 3 Zrotation Xrotation Yrotation
    JOINT LeftLeg
    {
      OFFSET 21.3 0.0 0.0
      CHANNELS 3 Zrotation Xrotation Yrotation
      JOINT LeftFoot
      {
        OFFSET 21.3 0.0 0.0
        CHANNELS 3 Zrotation Xrotation Yrotation
        End Site
        {
          OFFSET 0 -10.8 0
        }
      }
    }
  }
  JOINT RightUpLeg
  {
    OFFSET 0.0 0.0 -14.2
    CHANNELS 3 Zrotation Xrotation Yrotation
    JOINT RightLeg
    {
      OFFSET 21.3 0.0 0.0
      CHANNELS 3 Zrotation Xrotation Yrotation
      JOINT RightFoot
      {
        OFFSET 21.3 0.0 0.0
        CHANNELS 3 Zrotation Xrotation Yrotation
        End Site
        {
          OFFSET 0 -10.8 0
        }
      }
    }
  }
  JOINT Tail
  {
    OFFSET 0.0 0.0 0.0
    CHANNELS 3 Zrotation Xrotation Yrotation
    JOINT Tail1
    {
      OFFSET 0.0 0.0 0.0
      CHANNELS 3 Zrotation Xrotation Yrotation
      End Site
      {
        OFFSET 12 0 0
      }
    }
  }
}
MOTION
Frames:	10
Frame Time:	0.0166667
-41.2618 121.363 -50.1167 -3.18686 -4.2558 64.617 -174.363 0.101895 -7.39872 2.53773 0.904769 1.81784 -4.45125 0.40041 4.62112 -113.181 85.8813 156.411 -109.528 -34.818 -139.316 135.999 -40.5385 -124.629 -41.8129 13.296 -3.16634 -19.2909 4.28424 -18.6764 75.4394 -30.5046 46.2836 35.5837 -43.4129 -52.4161 -52.788 -20.3179 3.15164 -19.2274 -1.46828 9.36259 -132.128 -6.54315 -22.2307 64.2626 16.6558 21.002 50.6239 -6.50537 -9.79409 -118.275 0.1149 -1.55391 82.7317 6.03682 -1.77029 53.6185 -0.689964 -3.24886 -54.9804 41.4568 -2.68555 -3.76765 -36.6158 -3.95144 
-41.2425 121.358 -50.0926 -3.17865 -4.18297 64.4477 -174.357 0.0541343 -7.30179 2.42289 0.886066 1.5423 -4.37616 0.481784 4.44512 -115.607 86.3183 158.389 -109.559 -34.8284 -139.38 135.65 -40.6123 -124.85 -41.9755 13.1972 -3.21855 -19.1692 4.29081 -18.7161 75.535 -30.3602 46.2868 35.4815 -43.3803 -52.6583 -52.8054 -20.3804 3.24814 -19.2318 -1.46875 9.36167 -132.137 -6.62262 -22.3247 64.2359 16.5814 21.1297 50.5599 -6.51027 -9.80374 -118.37 0.0725222 -1.49602 82.7216 6.02481 -1.76891 53.596 -0.691363 -3.25148 -54.8865 41.3818 -2.9344 -3.77672 -36.0435 -4.01271 
-41.2142 121.359 -50.0804 -3.15314 -4.135 64.278 -174.395 0.0143057 -7.27617 2.40241 0.867333 1.36977 -4.35912 0.554031 4.28004 -119.636 86.9524 162.049 -109.567 -34.8662 -139.325 135.265 -40.4835 -124.869 -41.9895 13.2054 -3.35114 -19.2377 4.30471 -18.6902 75.644 -30.218 46.3422 35.3932 -43.2214 -52.9211 -52.7946 -20.4528 3.32498 -19.2683 -1.4435 9.26049 -132.145 -6.68969 -22.4201 64.1422 16.6911 21.2882 50.6267 -6.55152 -9.84354 -118.436 0.0514063 -1.27828 82.7094 5.75744 -1.83181 53.5387 -0.651953 -3.20998 -54.8638 41.2718 -3.01622 -3.85012 -35.7359 -4.06114 
-41.1862 121.364 -50.0797 -3.17243 -4.09878 64.0952 -174.452 -0.0131289 -7.23001 2.46406 0.867128 1.14379 -4.43011 0.580931 4.14614 -124.236 87.5144 166.414 -109.596 -34.9252 -139.284 135.104 -40.4334 -124.93 -41.9511 13.1972 -3.36528 -19.3925 4.3621 -18.7925 75.6001 -30.2193 46.1902 35.4594 -43.0786 -52.9934 -52.7679 -20.4835 3.37518 -19.2968 -1.45508 9.30582 -132.115 -6.74932 -22.5171 64.1077 16.608 21.3874 50.6281 -6.54653 -9.83588 -118.468 0.0329393 -1.13255 82.6846 5.50471 -1.87367 53.4943 -0.612677 -3.16931 -54.9252 41.1286 -2.97904 -3.93995 -35.7383 -4.07508 
-41.1609 121.364 -50.077 -3.22933 -4.08431 63.9304 -174.46 -0.0257453 -7.07631 2.4796 0.895443 0.761895 -4.56675 0.652602 3.98872 -128.727 87.7928 170.825 -109.617 -34.9385 -139.314 134.925 -40.3888 -125.086 -41.9487 13.1955 -3.39373 -19.4444 4.34507 -18.7102 75.5996 -30.175 46.0857 35.4271 -43.0256 -53.086 -52.7279 -20.4216 3.44501 -19.2486 -1.48998 9.43728 -132.073 -6.78296 -22.5758 64.1417 16.4788 21.4003 50.5544 -6.51536 -9.80509 -118.518 -0.0125912 -1.16396 82.7171 5.49898 -1.84578 53.5302 -0.613122 -3.17653 -55.048 40.961 -2.81367 -3.98639 -36.0222 -4.04086 
-41.1378 121.36 -50.0786 -3.28524 -4.12039 63.8035 -174.458 -0.0172337 -6.89417 2.55221 0.936698 0.411016 -4.65358 0.7356 3.8602 -139.378 88.2528 -178.999 -109.605 -34.9223 -139.313 135.009 -40.3274 -125.131 -41.8632 13.0661 -3.38495 -19.4939 4.39137 -18.7884 75.5877 -30.1697 46.0311 35.392 -42.9943 -53.1061 -52.7607 -20.3672 3.4602 -19.1342 -1.49369 9.47815 -132.033 -6.83636 -22.6016 64.2137 16.3949 21.3617 50.4838 -6.48101 -9.76907 -118.532 -0.0883226 -1.24987 82.7724 5.59314 -1.78774 53.5222 -0.629643 -3.19583 -55.1901 40.8075 -2.54067 -4.05228 -36.5547 -3.96957 
-41.1115 121.359 -50.0855 -3.35297 -4.16662 63.6557 -174.427 0.0215999 -6.7877 2.62052 1.001 0.186616 -4.74475 0.762823 3.64187 -154.864 88.6628 -164.09 -109.55 -34.8554 -139.3 134.989 -40.2138 -125.226 -41.8786 13.0381 -3.36178 -19.554 4.34179 -18.5865 75.5396 -30.2483 46.0442 35.3958 -42.98 -53.1023 -52.7976 -20.3815 3.39868 -19.0961 -1.47629 9.45057 -132.021 -6.81936 -22.6578 64.3 16.4317 21.3548 50.5382 -6.48677 -9.77301 -118.513 -0.135808 -1.22933 82.7933 5.54283 -1.77858 53.4955 -0.62281 -3.18528 -55.4515 40.6316 -2.12296 -4.11498 -37.3307 -3.88201 
-41.0811 121.367 -50.0895 -3.42064 -4.19177 63.4779 -174.389 0.0873426 -6.79777 2.67342 1.08497 0.115945 -4.97114 0.834222 3.15497 -157.668 88.6745 -161.573 -109.494 -34.7832 -139.294 134.912 -40.0859 -125.285 -41.9287 13.121 -3.37094 -19.6413 4.26194 -18.3063 75.4427 -30.4145 46.0881 35.5409 -42.9892 -53.0515 -52.8709 -20.3999 3.30136 -19.0969 -1.4631 9.41233 -131.985 -6.82045 -22.7 64.3817 16.3887 21.3531 50.5039 -6.47398 -9.76305 -118.473 -0.19066 -1.21953 82.7576 5.45151 -1.76718 53.4947 -0.605128 -3.16402 -55.7844 40.4017 -1.61636 -4.14152 -38.2171 -3.77126 
-41.0591 121.382 -50.0877 -3.46873 -4.21556 63.3321 -174.349 0.156992 -6.82556 2.71785 1.16761 0.0925973 -5.18262 0.995306 2.58634 -157.816 88.5572 -161.916 -109.463 -34.7263 -139.324 135.037 -40.0512 -125.264 -41.9465 13.0393 -3.35499 -19.6542 4.28889 -18.3584 75.3445 -30.6085 46.1911 35.5585 -43.0857 -53.0857 -52.9256 -20.3881 3.2346 -19.0402 -1.45089 9.38234 -131.941 -6.87437 -22.643 64.492 16.1513 21.2473 50.4037 -6.40695 -9.69306 -118.442 -0.315314 -1.35214 82.7279 5.47526 -1.68885 53.5439 -0.60301 -3.16022 -56.1037 40.1714 -1.09165 -4.1683 -39.1516 -3.64413 
-41.0506 121.386 -50.0788 -3.49971 -4.22005 63.248 -174.284 0.209609 -6.77701 2.64821 1.23217 0.0134027 -5.25689 1.13097 2.15712 -167.611 88.6045 -152.825 -109.437 -34.5967 -139.518 135.032 -40.1786 -125.596 -42.1672 12.9784 -3.26672 -19.479 4.24472 -18.3059 75.2984 -30.7235 46.2935 35.4156 -43.304 -53.1373 -52.9606 -20.3535 3.17973 -18.9303 -1.44065 9.38193 -131.966 -6.85853 -22.5534 64.6099 16.0364 21.1044 50.3942 -6.36213 -9.64257 -118.479 -0.409756 -1.41796 82.7618 5.43378 -1.65003 53.6387 -0.601133 -3.16033 -56.4797 39.9799 -0.530009 -4.25511 -40.2743 -3.51983 
